<?xml version="1.0" encoding="utf-8"?>
<!-- Generator: Adobe Illustrator 18.0.0, SVG Export Plug-In . SVG Version: 6.00 Build 0)  -->
<!DOCTYPE svg PUBLIC "-//W3C//DTD SVG 1.1//EN" "http://www.w3.org/Graphics/SVG/1.1/DTD/svg11.dtd">
<svg xmlns="http://www.w3.org/2000/svg" xmlns:xlink="http://www.w3.org/1999/xlink" version="1.1" id="Слой_1" x="0px" y="0px" viewBox="247 0 1244 1200" enable-background="new 247 0 1244 1200" xml:space="preserve">
<path fill="#F44545" stroke="" stroke-width="2" stroke-miterlimit="10" d="M807.4,407c-2.8-11.8-12.1-21.8-17.1-22.7  c0.3-1.2,7.5-12.7,4.4-19.9c-3.1-7.2-36.4-41.4-36.4-41.4s-24.3-49.1-36.7-52.9c-4.4-3.1-13.7,7.5-13.7,7.5s-44.8-54.1-82.4-62.5  c0,0,1.2-16.5-9-19.9c-10.3-3.4-19.9-3.1-19.9-3.1s7.8-7.5,8.7-27.7c6.5,0,24.6,3.4,29.8-1.9c5.3-5.3,3.1-38.6-12.7-64  s-1.6-54.4-69.6-57.5c-19.6-0.9-58.1,6.2-66.2,60c-2.2,9.3-19.6,43.5-6.2,56.9c0,2.2,21.8,6.2,21.8,6.2s-3.1,15.5,3.1,25.8  c0,0-21.8,4-20.8,12.4s2.2,14.6,2.2,19.6c0,5-60,17.7-73.7,36.4c-13.4,18.7-59.1,73.7-70.6,107.9c-11.5,34.2-16.5,20.8-15.5,46.6  c0.9,25.8-22.7,48.8,7.2,70.6c7.2,4-6.2,10.3,10.3,11.5c0,0.9-12.4,28,43.5,23.9c0,0,7.5,13.1,19.9,18l-5.9,5.3l2.5,2.5l-2.5,2.8  l-3.1-2.8l-5.3,5.6l2.8,2.8l-3.4,3.1l-3.1-2.8l-5.6,5.6l3.1,2.5l-2.5,2.8l-3.4-2.8l-6.2,5.6l3.4,3.4l-3.1,2.8l-3.4-3.4l-6.8,6.5  l3.4,3.7l-5.6,4.4l-3.4-4c0,0-5.6,3.4-5,5.9c0.9,2.5-28-5.6-32-3.1c-4,2.5-5.3,2.8-3.7,6.8s16.8,23.3,17.4,27s-47.9,47.3-49.4,48.8  s-6.2,0.3-6.8,2.5c-0.6,2.5-5.6,0.3-4.4,5.6c0-0.3-8.4,10.3-11.8,10.3c-3.4-0.3-4,4.7,0.9,9.3s10.9,5.3,10.9,0s7.8-11.5,10.9-11.5  s4-2.2,2.8-3.7c0,0,3.7,2.5,4-2.5c0.6-5,51.3-47.9,52.5-48.2c1.2-0.3,3.4,5.3,3.4,5.3l4-4l-4-5.9l11.8-10.3c0,0,4,6.5,9.9,4  c0.9,1.2,0,12.7,24.6,3.1c15.9-4,21.1-5.9,21.1-5.9s-6.2,35.1-2.5,39.8s9.9,9.9,9.9,9.9s1.2,28.6-1.6,32c-2.8,3.7-14.6,2.5,2.5,31.1  c2.2,4-3.4,41.4,1.9,52.9c-2.5,2.5-19.3,32-2.5,58.5s29.2,28.9,31.7,32.6c2.5,3.7-3.1,7.8,4,11.2c-0.9,2.8-1.2,28.9-1.2,28.9  s-6.2-3.7-7.5,7.8c-1.2,11.5,2.5,28.3-1.9,36.1c-4.4,7.8-1.2,36.1,19.6,51.6c2.5,1.6-1.9,10.6,8.7,13.4c-0.9,3.4-14.6,12.1-7.2,20.2  c7.2,8.1,16.5,6.5,16.5,6.5s9,33.9,7.5,36.1c-1.6,2.2,7.2,2.8,9.9,4.7c2.5,1.9-9.9,13.4-9,18c0.9,4.4,7.2,6.8,8.1,9.6  s-5,1.9-6.5,4.7c-1.6,2.8-10.6,17.7-10.3,21.5c-5.6-0.6-20.2,2.2-20.2,22.4c0,20.2,0.6,18,0.6,18s2.5,4,6.2,5.9  c3.7,2.2,57.5-2.5,60-3.1c2.5-0.6,1.2-5.6,4.7-6.5c3.4-0.9,8.4,4,12.4,2.8c4-1.2,8.7-2.2,9.9-3.4c1.2-1.2,2.5-24.3,0-28.3  c1.6-0.9,1.9-27.4-0.9-33.6c-0.3-2.8,9-11.8-3.7-24.6c-6.2-5.6,1.2-9.6,1.6-13.7s0-45.1-0.6-50.1c-0.6-5,5.6,4,7.2-3.7  c0.6,3.7,2.5,8.7,9.6,8.4c0,0-6.8,24.6,4,39.2c1.2,2.8-8.4,12.4,0,25.5c0.9,2.2-6.8,19.6-2.5,26.7c-2.5,5.3-7.2,16.8-0.9,36.1  c-1.9,10.6-2.2,23.9,1.2,28.9c3.4,5.3,38.2,4.4,42.3,3.4c4-0.9,13.7-9.6,21.1-20.2c9.6-5.9,35.4-13.7,30.8-47.9  c-4.7-34.2-11.2-37.3-26.1-36.7c0,0-4.4-12.7-2.8-19c1.6-6.2,10.3-37.9,10.3-37.9s5.9-21.1,10.3-23s11.8-1.6,11.8-8.1  c0.3-6.5-8.4-15.2-7.2-22.7c1.2-7.2-5-9.3-2.2-16.2c2.8-6.8,7.5-11.5,3.7-30.8c-3.7-19.3,8.1-36.7,2.8-48.2  c-5.3-11.8,28.9-34.5,28.9-34.5s25.5-29.5-1.6-50.7c0.3,0.3,15.5-17.4,9.3-61.3c0.3-0.3,7.5-31.7-1.6-58.5c0,0-11.8-33.9-8.4-37  c3.4-3.1,5,3.1,6.2-3.1c1.2-6.2-0.9-32.3-2.8-37c-1.9-4.7-5-3.1-4.7-10.6c0.3-7.5-7.5-13.4-4.7-22.7c2.8-9.3,2.8-24.3,6.5-27.4  c3.7-3.1,10.6-3.4,12.1-21.5c1.6-18,8.4-25.8,9.6-33.6s27.4-5.6,30.5-9.3c3.1-3.7,19,8.7,30.5,0.3  C791.8,465.7,810.2,418.5,807.4,407z M340.4,610.9l-6.2-10.6c4-2.2,0-8.4,0-8.4c5-4.4,15.2,1.6,18.3,3.4L340.4,610.9z"/>
<path fill="#F44545" stroke="" stroke-width="2" stroke-miterlimit="10" d="M1479,681.8c-6.2,0.6-12.1-9.9-12.1-9.6  c2.5-5.9-2.5-6.2-4.7-5.6c0.6-4.4-5-3.7-6.8-2.2c-1.2-0.9-24.3-20.2-39.2-33.9c-0.9-1.9-0.9-4,0-5.6c0,0-3.7-3.1-9-7.5l19.9-18.7  c0,0-5.6-9-5.6-8.7c-4.7-0.9-29.5,3.1-39.8,5.9c-0.3-0.3-0.6-0.3-0.6-0.6c4.7-7.8-4.7-13.4-4.7-13.4l-51-37c0.6-2.2,1.2-4.4,1.2-6.5  c0-14-7.8-20.2-7.8-20.2s43.5-31.1,38.9-60.6s3.1-40.4-9.3-52.9l-10.9-73.1c0,0,3.1-29.5-24.9-31.1c1.6,0-20.2-57.5-54.4-63.7  c1.6,0-10.9-34.2-38.6-29.5c1.6-1.6-3.4-37-25.8-32.6c1.6,0,7.2-21.1,7.2-21.1s10.3,6.2,12.4-14.6c-1.6-1.6,18.7-4.7,18.7-4.7  s4.7-38.9-6.2-57.5c-3.1-7.8,1.6-62.2-73.1-66.8c-28-1.9-68.4,21.8-74.6,71.5c-8.4,24.9-12.4,39.5-8.4,45.4c5.9,0.6,9,0,16.2,2.8  c0,0-3.7,17.7,9.3,16.2c2.5,7.2,2.8,17.4,4.7,21.1c0,0-18.7-10.9-15.5,26.4c-2.5,0.9-67.5,48.5-80.8,52.9  c-14,4.7-74.6,108.8-80.8,130.6s-23.3,87.1,17.1,116.6c40.4,29.5,63.7,14,63.7,14s-20.2,83.9-15.5,97.9  c7.8,12.4,17.1,17.1,29.5,21.8c-10.9,7.8,6.2,34.2,4.7,45.1c-1.6,10.9-12.4,35.8-4.7,60.6s-28,43.5,0,74.6  c28,31.1,6.2,52.9,6.2,52.9s-14,20.2,3.1,45.1c17.1,24.9,34.2,56,40.4,63.7c6.2,7.8,8.7,40.1-1.6,74.6  c-11.8,39.8-14.6,73.1-0.3,86.1c4.7,4.4,0.3,8.7,20.5,14.9c20.2,6.2,40.4-12.4,43.5-31.1c3.1-18.7-4.7-62.2,1.6-76.2  c6.2-14,28-57.5,15.5-70c-12.4-12.4,12.4-42-1.6-74.6c0,3.1-4.7-29.5-1.6-52.9s9.3-29.5,9.3-29.5s-4.7,26.4,7.8,38.9  c0,0,0,32.6,0,45.1s7.8,18.7,7.8,18.7s-14,17.1-12.4,40.4s7.8,6.2,12.4,35.8c4.7,29.5-7.8,17.1,4.7,29.5c12.4,12.4,0,51.3,0,51.3  s-9.3,12.4-7.8,21.8c1.6,9.3,7.8,14-3.1,23.3c-6.2,12.4,3.1,24.3,1.6,30.8c-1.6,6.5-13.7,26.7,0,37.6c7.8,6.2,61.9,2.2,66.5,0.6  s11.2-30.2-4.4-56.6c0,1.6,7.8-15.5-1.6-21.8c-1.6,1.6,3.1-14,0-18.7c1.6,1.6,9.9-23.3,17.4-60.6c13.7-3.1,24.6,0,23-6.2  s-1.2-49.7,0-83.9c1.2-34.2,7.8-68.4,0-94.8c0,0-3.1-18.7,15.5-21.8c17.4-2.8,17.1-52.5,13.4-93.3c4.7,0.6,9,0.6,13.1,0  c15.5-3.1,42.9-9.3,67.8-58.5c0.9,0.9,8.7-17.1,8.7-17.1l-6.2-2.5l6.2-13.4c0,0-5.6-9.9-11.5-13.4c2.5-1.6,4-4.4,4-7.5  c0-0.6,0-1.2-0.3-1.9c0,0,72.1,55.7,72.8,60.3c-1.6,1.9,2.2,6.2,5,3.4c-1.6,1.2,0.6,6.8,5,4c1.9,0.3,9.3,6.8,9.3,10.6  c0,5.6,5.9,4.4,10.9-0.3C1483.3,685.9,1482.4,681.5,1479,681.8z M1358.6,654.5c-1.6,0,6.2,4.7-5.6,10.9  c-11.8,6.2-13.4,31.1-17.1,34.2c-3.7,3.1-18,25.8-43.5,18c-4.7-42,7.8-74.6,3.1-88.6c0-1.6,15.5-6.2,15.5-6.2s-3.1-4.7,0-12.4  c3.1-7.8,4.7-21.8,0-29.5c0,0,0-0.3-0.3-0.6c15.9,13.4,34.8,28.9,41.4,32.3c1.9,0.9,3.7,1.6,5.6,1.9c0,0.3,0,0.3,0,0.6  c0,2.5,1.2,5,3.1,6.5c-1.9,0.6-4,2.5-4.7,5.6C1354.9,634.9,1350.9,648.9,1358.6,654.5z M1367,620.6c-3.1,0-5.6-2.5-5.6-5.6v-0.3  c4.7-0.3,7.8-2.8,9-4c1.2,0.9,2.2,2.5,2.2,4.4C1372.9,618.1,1370.1,620.6,1367,620.6z M1413.7,598.5c-4.7,2.8-1.6,6.8-1.6,6.8  l-9.9,7.5c-5.6-4.7-11.5-9.6-15.5-13.1C1411.8,591,1414,598.5,1413.7,598.5z"/>
</svg>
