<svg xmlns="http://www.w3.org/2000/svg" xmlns:xlink="http://www.w3.org/1999/xlink" width="40" height="40" viewBox="0 0 40 40">
    <defs>
        <path id="a" d="M0 0h38v38H0z"/>
    </defs>
    <g fill="none" fill-rule="evenodd">
        <path fill="#41479B" d="M2.743 12.043h6.214-6.214zM7.953 7.093V5.308c-.399.327-.784.67-1.154 1.029l1.154.756z"/>
        <g transform="translate(1 1)">
            <mask id="b" fill="#fff">
                <use xlink:href="#a"/>
            </mask>
            <path fill="#1708B1" d="M36.175 13.285l-1.062.074.164 1.052a.092.092 0 0 1-.159.076l-.72-.784-.72.784a.092.092 0 0 1-.159-.076l.165-1.052-1.063-.074a.092.092 0 0 1-.039-.172l.925-.527-.604-.877a.092.092 0 0 1 .11-.137l.989.394.308-1.02c.026-.086.15-.086.176 0l.309 1.02.989-.394a.092.092 0 0 1 .11.137l-.605.877.925.527a.092.092 0 0 1-.04.172m-4.519 6.056l-.63.466.236.747a.106.106 0 0 1-.162.117l-.637-.455-.637.455a.106.106 0 0 1-.162-.117l.236-.747-.63-.466a.106.106 0 0 1 .062-.19l.783-.006.248-.743a.105.105 0 0 1 .2 0l.248.743.783.006c.102 0 .144.13.062.19m-1.992 10.422l-1.063.075.164 1.052c.014.09-.097.143-.158.076l-.72-.784-.72.784a.092.092 0 0 1-.159-.076l.164-1.052-1.062-.075c-.09-.006-.118-.126-.04-.17l.926-.529-.605-.876a.092.092 0 0 1 .11-.138l.99.394.308-1.019c.026-.087.15-.087.175 0l.31 1.02.989-.395a.092.092 0 0 1 .11.138l-.605.876.925.528c.079.045.051.165-.04.171M23.45 18.152l-1.063.074.164 1.052a.092.092 0 0 1-.158.077l-.72-.785-.72.785a.092.092 0 0 1-.159-.077l.164-1.052-1.062-.074c-.09-.006-.118-.127-.04-.172l.926-.527-.605-.877a.092.092 0 0 1 .11-.137l.99.394.308-1.02c.026-.086.15-.086.176 0l.308 1.02.99-.394a.092.092 0 0 1 .11.137l-.605.877.925.527a.092.092 0 0 1-.04.172m2.62-9.512l.926-.528-.605-.877a.092.092 0 0 1 .11-.137l.99.394.308-1.019c.026-.087.15-.087.175 0l.31 1.02.989-.395a.092.092 0 0 1 .11.137l-.605.877.925.528c.079.045.051.165-.04.171l-1.062.075.164 1.052a.092.092 0 0 1-.158.076l-.72-.784-.72.784a.092.092 0 0 1-.159-.076l.164-1.052-1.062-.075c-.09-.006-.118-.126-.04-.171M13.1 29.93l-2.174.152.336 2.154a.188.188 0 0 1-.325.156l-1.474-1.606-1.475 1.606a.188.188 0 0 1-.324-.156L8 30.082l-2.175-.152a.188.188 0 0 1-.08-.35l1.893-1.081-1.237-1.795a.188.188 0 0 1 .225-.282l2.025.807.632-2.086a.188.188 0 0 1 .36 0l.632 2.086 2.025-.806a.188.188 0 0 1 .224.28L11.287 28.5l1.894 1.08c.161.092.105.338-.08.351M19 0a18.95 18.95 0 0 0-7.027 1.343v4.75L19 1.488V5.09l-2.959 1.938H19v5.02h-2.959L19 13.986v3.6l-7.027-4.604v6.093h-5.02v-6.093L.059 17.499C.02 17.994 0 18.495 0 19l.001.075C.041 29.534 8.531 38 19 38c10.493 0 19-8.507 19-19S29.493 0 19 0" mask="url(#b)"/>
        </g>
        <path fill="#F5F5F5" d="M14.18 30.58l-1.893-1.081 1.237-1.795a.188.188 0 0 0-.224-.281l-2.025.806-.632-2.086a.188.188 0 0 0-.36 0l-.632 2.086-2.025-.807a.188.188 0 0 0-.225.282l1.237 1.795-1.893 1.08a.188.188 0 0 0 .08.35L9 31.083l-.336 2.154a.188.188 0 0 0 .324.156l1.475-1.606 1.474 1.606a.188.188 0 0 0 .325-.156l-.336-2.154 2.174-.152c.186-.013.242-.259.08-.35M27.109 9.811l1.062.075-.164 1.052a.092.092 0 0 0 .158.076l.72-.784.721.784a.092.092 0 0 0 .158-.076L29.6 9.886l1.063-.075a.092.092 0 0 0 .039-.171l-.925-.528.604-.877a.092.092 0 0 0-.11-.137l-.989.394-.309-1.019c-.026-.087-.149-.087-.175 0l-.309 1.02-.989-.395a.092.092 0 0 0-.11.137l.605.877-.925.528a.092.092 0 0 0 .039.171M24.489 18.98l-.925-.527.604-.877a.092.092 0 0 0-.11-.137l-.989.394-.308-1.02c-.027-.086-.15-.086-.176 0l-.309 1.02-.989-.394a.092.092 0 0 0-.11.137l.605.877-.925.527a.092.092 0 0 0 .039.172l1.062.074-.164 1.052a.092.092 0 0 0 .159.077l.72-.785.72.785c.062.066.172.013.158-.077l-.164-1.052 1.063-.074a.092.092 0 0 0 .039-.172M37.214 14.113l-.925-.527.604-.877a.092.092 0 0 0-.11-.137l-.988.394-.31-1.02c-.025-.086-.149-.086-.175 0l-.308 1.02-.99-.394a.092.092 0 0 0-.11.137l.605.877-.925.527a.092.092 0 0 0 .04.172l1.062.074-.164 1.052c-.015.09.096.143.158.076l.72-.784.72.784c.062.067.173.014.159-.076l-.164-1.052 1.062-.074c.09-.007.118-.127.04-.172M30.702 30.592l-.925-.528.604-.876c.052-.075-.025-.171-.11-.138l-.989.394-.308-1.019c-.027-.087-.15-.087-.176 0l-.309 1.02-.989-.395a.092.092 0 0 0-.11.138l.605.876-.925.528a.092.092 0 0 0 .039.171l1.062.075-.164 1.052a.092.092 0 0 0 .158.076l.72-.784.721.784a.092.092 0 0 0 .158-.076l-.164-1.052 1.063-.075c.09-.006.118-.126.039-.17M32.593 20.15l-.783-.005-.248-.743a.105.105 0 0 0-.2 0l-.248.743-.783.006a.106.106 0 0 0-.062.19l.63.466-.236.747c-.03.096.08.176.162.117l.637-.455.637.455a.106.106 0 0 0 .162-.117l-.236-.747.63-.466a.106.106 0 0 0-.062-.19"/>
        <path fill="#5856D6" d="M2.313 13.047c-.173.438-.329.884-.469 1.337l2.04-1.337H2.313z"/>
        <path fill="#F5F5F5" d="M11.969 20.075h1.004v-6.093L20 18.586v-1.487l-6.242-4.052h1.844L20 15.902v-.916l-2.959-1.939H20v-1.004h-8.031zM7.953 20.075h1.004v-8.032H2.743c-.153.33-.297.664-.43 1.004h1.571l-2.04 1.337a18.849 18.849 0 0 0-.439 1.698l4.676-3.035h1.844L1.174 17.43c-.048.353-.087.71-.115 1.069l6.894-4.517v6.093zM8.957 4.538a19.04 19.04 0 0 0-1.004.77v1.785l-1.154-.756c-.327.315-.642.642-.945.98l1.095.71H5.248c-.265.327-.52.661-.764 1.004h4.473V4.538zM20 9.031V8.027h-2.959L20 6.09V4.663l-5.184 3.364h-1.843L20 3.466v-.978l-7.027 4.605v-4.75c-.34.135-.675.28-1.004.434v6.254H20z"/>
        <path fill="#FF3B30" d="M8.957 12.043v8.032h3.012v-8.032H20V9.031h-8.031V2.778a18.977 18.977 0 0 0-3.012 1.76V9.03H4.484a18.973 18.973 0 0 0-1.741 3.012h6.214z"/>
        <path fill="#FF3B30" d="M6.081 13.047l-4.676 3.035c-.093.444-.17.893-.231 1.348l6.751-4.383H6.081zM13.758 13.047L20 17.1v-1.197l-4.398-2.855zM5.854 7.317c-.208.31-.41.627-.607.95H6.95l-1.095-.95zM14.816 8.027L20 4.663V3.466l-7.027 4.561z"/>
        <path stroke="#CDD3E4" d="M39 20c0 10.493-8.507 19-19 19S1 30.493 1 20 9.507 1 20 1s19 8.507 19 19z"/>
    </g>
</svg>
