<?xml version="1.0" encoding="UTF-8"?>
<svg width="30px" height="30px" viewBox="0 0 30 30" version="1.1" xmlns="http://www.w3.org/2000/svg" xmlns:xlink="http://www.w3.org/1999/xlink">
    <!-- Generator: sketchtool 48.2 (47327) - http://www.bohemiancoding.com/sketch -->
    <title>03D0C74C-D85D-4791-8ABA-0B80B7335FC0</title>
    <desc>Created with sketchtool.</desc>
    <defs>
        <polygon id="path-1" points="3.96932373e-06 0.0285925926 19.6692593 0.0285925926 19.6692593 16.2961852 3.96932373e-06 16.2961852"></polygon>
    </defs>
    <g id="Footer/HD" stroke="none" stroke-width="1" fill="none" fill-rule="evenodd" transform="translate(-650.000000, -121.000000)">
        <g id="btn_blog" transform="translate(650.000000, 121.000000)">
            <path d="M15,30 C23.2842712,30 30,23.2842712 30,15 C30,6.71572875 23.2842712,0 15,0 C6.71572875,0 0,6.71572875 0,15 C0,23.2842712 6.71572875,30 15,30 Z" id="Oval-2" fill="#BAC0CD"></path>
            <g id="Page-1" transform="translate(5.000000, 7.000000)">
                <path d="M15.4369259,6.98785185 C14.8547037,7.18859259 14.8006296,8.11822222 15.3465556,8.39266667 C15.8172963,8.65933333 16.5032222,8.31414815 16.4772963,7.74711111 C16.5406296,7.20822222 15.9302593,6.75637037 15.4369259,6.98785185" id="Fill-1" fill="#FFFFFF"></path>
                <path d="M10.8987778,7.00014815 C10.2821111,7.17162963 10.1998889,8.13977778 10.7695185,8.42162963 C11.2428519,8.70644444 11.9521111,8.32237037 11.8884074,7.75162963 C11.9521111,7.23385185 11.3765556,6.81718519 10.8987778,7.00014815" id="Fill-3" fill="#FFFFFF"></path>
                <path d="M3.96014815,7.02077778 C3.3682963,7.23040741 3.34014815,8.1867037 3.9157037,8.43818519 C4.39348148,8.69225926 5.05348148,8.303 5.00755556,7.74707407 C5.05940741,7.2067037 4.44755556,6.79188889 3.96014815,7.02077778" id="Fill-5" fill="#FFFFFF"></path>
                <g id="Group-9" transform="translate(0.000000, 0.341778)">
                    <mask id="mask-2" fill="white">
                        <use xlink:href="#path-1"></use>
                    </mask>
                    <g id="Clip-8"></g>
                    <path d="M17.6139259,9.00211111 C17.6091111,9.60174074 17.398,10.2443333 16.8987407,10.6124815 C16.4654074,10.9413704 15.8946667,10.9776667 15.370963,10.9543333 C15.3724444,10.5921111 15.370963,10.2302593 15.3698519,9.86803704 C15.6468889,9.85581481 15.968,9.86914815 16.185037,9.66433333 C16.4257778,9.43062963 16.4257778,9.07248148 16.4491111,8.761 C15.8620741,9.31803704 14.8735556,9.33396296 14.2828148,8.77433333 C13.4620741,7.99877778 13.5865185,6.47655556 14.5165185,5.8347037 C15.0846667,5.43137037 15.9702222,5.43137037 16.4372593,5.99692593 C16.435037,5.91581481 16.435037,5.75433333 16.435037,5.67322222 C16.8272593,5.66951852 17.2205926,5.66951852 17.6139259,5.67322222 C17.6139259,6.78285185 17.6165185,7.89248148 17.6139259,9.00211111 M12.4805926,8.81544444 C11.4905926,9.56544444 9.73614815,9.321 9.25614815,8.0872963 C8.84837037,7.121 9.41096296,5.89766667 10.4465185,5.64914815 C11.1817037,5.44211111 12.0528148,5.5547037 12.6213333,6.0972963 C13.3794815,6.80581481 13.3235556,8.19433333 12.4805926,8.81544444 M8.33762963,9.12433333 C7.94762963,9.12766667 7.55837037,9.12766667 7.16948148,9.12544444 C7.1517037,8.06062963 7.1917037,6.99359259 7.14688889,5.92914815 C7.14948148,5.57766667 6.96392593,5.22655556 6.60911111,5.12359259 C6.60244444,4.73692593 6.60688889,4.35062963 6.60911111,3.96322222 C6.96874074,3.97433333 7.33503704,4.05285185 7.62355556,4.27433333 C8.13688889,4.64877778 8.35281481,5.31396296 8.34022222,5.92914815 C8.33540741,6.99507407 8.34244444,8.06062963 8.33762963,9.12433333 M5.59133333,8.86655556 C5.02059259,9.361 4.03318519,9.38951852 3.53985185,8.76840741 C3.54244444,8.85766667 3.54466667,9.03544444 3.54725926,9.12433333 C3.15133333,9.12766667 2.7542963,9.13211111 2.35874074,9.11618519 C2.37614815,7.43692593 2.33874074,5.75618519 2.37985185,4.07803704 C2.76985185,4.08988889 3.15837037,4.08507407 3.54725926,4.08988889 C3.53281481,4.71618519 3.55392593,5.34507407 3.53207407,5.97211111 C4.10244444,5.39877778 5.10985185,5.42248148 5.67355556,5.99211111 C6.4517037,6.74174074 6.42503704,8.16840741 5.59133333,8.86655556 M19.495037,2.75062963 C19.0276296,1.20137037 17.5024444,0.0324814815 15.8761481,0.0313703704 C11.8487407,0.0276666667 7.82022222,0.0276666667 3.79244444,0.0313703704 C1.84318519,0.021 0.0831851852,1.71137037 0.00540740741,3.65655556 C-0.00385185185,5.70396296 0.000592592593,7.75211111 0.00540740741,9.80137037 C0.0502222222,11.6921111 1.68688889,13.3702593 3.57540741,13.473963 C5.14392593,13.5117407 6.71355556,13.4684074 8.28392593,13.4958148 C8.64651852,14.2695185 9.03540741,15.0317407 9.40874074,15.8017407 C9.51207407,15.9943333 9.58688889,16.2406296 9.82874074,16.2961852 C10.0754074,16.2491481 10.150963,15.9998889 10.2539259,15.8076667 C10.6320741,15.0354444 11.015037,14.2661852 11.3894815,13.491 C12.9572593,13.473963 14.5257778,13.5084074 16.0942963,13.473963 C17.9802222,13.3691481 19.6124444,11.6947037 19.6605926,9.80507407 C19.6687407,8.17211111 19.6617037,6.53803704 19.6665185,4.90433333 C19.6524444,4.18507407 19.7346667,3.4447037 19.495037,2.75062963" id="Fill-7" fill="#FFFFFF" mask="url(#mask-2)"></path>
                </g>
            </g>
        </g>
    </g>
</svg>