<svg xmlns="http://www.w3.org/2000/svg" xmlns:xlink="http://www.w3.org/1999/xlink" width="40" height="40" viewBox="0 0 40 40">
    <defs>
        <path id="a" d="M0 .729h4.748V7.17H0z"/>
        <path id="c" d="M.502.603h2.562V3.75H.502z"/>
    </defs>
    <g fill="none" fill-rule="evenodd">
        <path fill="#FFF" stroke="#E5E7EC" d="M39.653 20.338c0 10.68-8.877 19.339-19.827 19.339C8.876 39.677 0 31.019 0 20.338 0 9.658 8.876 1 19.826 1c10.95 0 19.827 8.658 19.827 19.338z"/>
        <path fill="#D80027" d="M24.33 14.782c-3.583-2.25-8.425-1.33-10.813 2.038-1.198 1.682-.71 3.965 1.08 5.09 1.791 1.124 4.21.668 5.405-1.02 1.195-1.686 3.616-2.137 5.406-1.018 1.794 1.124 2.277 3.409 1.08 5.09 2.39-3.374 1.423-7.93-2.158-10.18"/>
        <path fill="#41479B" d="M13.517 16.82c-1.198 1.682-.71 3.965 1.08 5.09 1.791 1.125 4.211.667 5.405-1.019 1.195-1.687 3.616-2.138 5.406-1.02 1.794 1.125 2.277 3.41 1.08 5.09-2.387 3.38-7.226 4.287-10.81 2.039-3.582-2.25-4.55-6.806-2.161-10.18"/>
        <path fill="#464655" d="M28.3 10.947l1.417 2.13a.39.39 0 0 1-.109.54l-.359.241a.39.39 0 0 1-.542-.109l-1.419-2.129a.39.39 0 0 1 .109-.54l.36-.241a.39.39 0 0 1 .542.108M30.485 14.232l1.422 2.128a.39.39 0 0 1-.11.542l-.36.238a.39.39 0 0 1-.54-.109l-1.42-2.126a.39.39 0 0 1 .107-.54l.36-.241a.39.39 0 0 1 .541.108M29.816 9.935l3.608 5.414a.39.39 0 0 1-.108.541l-.363.242a.39.39 0 0 1-.54-.108l-3.61-5.415a.39.39 0 0 1 .108-.54l.364-.243a.39.39 0 0 1 .541.11M31.33 8.924l1.42 2.134a.39.39 0 0 1-.11.54l-.361.24a.39.39 0 0 1-.54-.11l-1.422-2.13a.39.39 0 0 1 .11-.54l.36-.242a.39.39 0 0 1 .542.108M33.517 12.214l1.418 2.13c.119.179.07.42-.109.541l-.359.24a.39.39 0 0 1-.542-.108l-1.418-2.13a.39.39 0 0 1 .108-.54l.36-.24a.391.391 0 0 1 .542.107M9.106 23.742l3.608 5.408c.12.18.07.422-.108.542l-.361.24a.39.39 0 0 1-.542-.108l-3.607-5.409a.39.39 0 0 1 .108-.54l.361-.242a.39.39 0 0 1 .541.109M7.592 24.753l1.416 2.125a.39.39 0 0 1-.108.54l-.358.24A.39.39 0 0 1 8 27.552l-1.418-2.124a.389.389 0 0 1 .108-.54l.36-.242a.39.39 0 0 1 .542.108M9.78 28.038l1.419 2.13c.12.179.07.42-.108.541l-.36.24a.39.39 0 0 1-.542-.108l-1.42-2.13a.39.39 0 0 1 .11-.54l.36-.241a.39.39 0 0 1 .542.108M6.078 25.765l3.605 5.409a.39.39 0 0 1-.108.54l-.36.241a.39.39 0 0 1-.542-.108l-3.607-5.409a.39.39 0 0 1 .108-.54l.362-.242a.39.39 0 0 1 .542.109M8.097 16.36l3.607-5.414a.39.39 0 0 1 .54-.107l.362.24a.39.39 0 0 1 .108.542l-3.608 5.41a.39.39 0 0 1-.54.108l-.36-.238a.39.39 0 0 1-.11-.541M6.581 15.35l3.609-5.414a.39.39 0 0 1 .54-.108l.361.24a.39.39 0 0 1 .107.541l-3.606 5.414a.39.39 0 0 1-.541.108l-.362-.24a.39.39 0 0 1-.108-.541"/>
        <g transform="translate(5 8.022)">
            <mask id="b" fill="#fff">
                <use xlink:href="#a"/>
            </mask>
            <path fill="#464655" d="M.065 6.322L3.674.902a.39.39 0 0 1 .54-.107l.361.24c.179.12.227.362.108.541l-3.605 5.42a.39.39 0 0 1-.542.108l-.362-.241a.39.39 0 0 1-.109-.541" mask="url(#b)"/>
        </g>
        <path fill="#464655" d="M27.29 29.15l1.417-2.123a.39.39 0 0 1 .541-.108l.36.24a.39.39 0 0 1 .107.54L28.3 29.825a.39.39 0 0 1-.541.108l-.36-.24a.391.391 0 0 1-.109-.542M29.476 25.876l1.42-2.134a.39.39 0 0 1 .541-.108l.363.241a.39.39 0 0 1 .108.542l-1.424 2.13a.39.39 0 0 1-.54.108l-.358-.237a.39.39 0 0 1-.11-.542M28.803 30.168l1.42-2.13a.388.388 0 0 1 .54-.108l.363.242c.18.119.227.36.108.54l-1.418 2.13a.39.39 0 0 1-.54.109l-.364-.243a.39.39 0 0 1-.109-.54M30.992 26.878l1.42-2.125a.39.39 0 0 1 .54-.108l.364.242a.39.39 0 0 1 .107.54l-1.419 2.125a.39.39 0 0 1-.54.108l-.363-.241a.39.39 0 0 1-.109-.541"/>
        <g transform="translate(29.75 28.272)">
            <mask id="d" fill="#fff">
                <use xlink:href="#c"/>
            </mask>
            <path fill="#464655" d="M.568 2.902L1.988.776a.389.389 0 0 1 .54-.109l.362.239a.39.39 0 0 1 .108.542L1.58 3.576a.39.39 0 0 1-.54.109l-.363-.242a.39.39 0 0 1-.108-.541" mask="url(#d)"/>
        </g>
        <path fill="#464655" d="M32.508 27.894l1.417-2.128a.39.39 0 0 1 .54-.108l.362.24a.39.39 0 0 1 .107.541l-1.418 2.126a.391.391 0 0 1-.54.108l-.358-.237a.39.39 0 0 1-.11-.542"/>
    </g>
</svg>
