<?xml version="1.0" encoding="utf-8"?>
<!-- Generator: Adobe Illustrator 18.0.0, SVG Export Plug-In . SVG Version: 6.00 Build 0)  -->
<!DOCTYPE svg PUBLIC "-//W3C//DTD SVG 1.1//EN" "http://www.w3.org/Graphics/SVG/1.1/DTD/svg11.dtd">
<svg xmlns="http://www.w3.org/2000/svg" xmlns:xlink="http://www.w3.org/1999/xlink" version="1.1" id="Слой_1" x="0px" y="0px" viewBox="0 85 768 870" enable-background="new 0 85 768 870" xml:space="preserve">
<path fill="#4BB7EE" stroke="" stroke-width="2" stroke-linecap="round" stroke-linejoin="round" stroke-miterlimit="10" d="  M761.9,140.4c0,0-24.5-68-87.3-40.8c0,0-35.9,23.9-33.5,49.9c0,0-1.2,27.8-26.6,27.2c0,0-34.4-13.9-73.7,10.9  c0,0-72.7,36.7-107.1,65c0,0-53.5,26.8-47.5,49.1c0,0,4.4,45.3,14.5,68.3c0,0-12.1,22.3-31.4,38.7c0,0-26.6,18.5-38.4,48.6L-1,562.8  c-3,1-4.7,4.2-3.8,7.3c0.8,2.5,3.1,4,5.5,4c0.6,0,1.2-0.1,1.8-0.3l324.4-103.3c-0.5,2.4-0.9,4.9-1.1,7.4c0,0-3.5,19.2-0.9,37.3  L-0.9,611.2c-3.1,0.9-4.8,4.1-3.9,7.2c0.7,2.5,3,4.1,5.5,4.1c0.5,0,1.1-0.1,1.6-0.2l325.1-95.7c1,2.9,2.2,5.7,3.7,8.2  c0,0-3.6,32.6-16.9,52.5c0,0-26,53.2-37.4,84.6c0,0-6.1,19.3-15.1,23.1l-9,0.7c0,0-61-4.4-113.1,55.2c0,0-29,26.3-64,41.9  c0,0-14.9,5.1-36.5,8.8c0,0-35.7,2.2-17.1,39.5c0,0,15.7,25.3,11.2,52.9c0,0,0.7,25.3,14.2,29.1c0,0,8.9,7.4,19.4,8.2  c0,0,36.5,2.5,35.6-6.7c0,0,0.9-8.2-11.7-7.4c0,0-10.4-1.5-8.9-15.6c0,0,6-35.8,2.2-52.1c0,0,70.8-48.5,111.7-58.1  c0,0,64.4-18.4,87.9-29c0,0,41-3.7,50.7-14.9l32.8-46.2c0,0,54.4-81.9,54.4-96.1c0,0,70,78.2,89.4,90.1c0,0,0,3.7-11.2,8.9  c0,0-47.7,20.9-70,78.2c0,0-30.5,46.2-58.8,69.3c0,0-42.5,20.9-25.3,43.9c0,0,12.9,10.4,29.7,17.7c0,0,39.3,30.5,47.8,32.9  c0,0,41,8.2,45.2-3.2c0,0,8,3,13.2-5.2c0,0,7,3.6,10.7-2.4c6.7,2.5,11.3-7.7,10.6-6.3c0,0,0-3.9-18.6-8.3c0,0-6-4.5-19.4-8.2  c0,0-47.5-24.6-40.1-43.2c0,0,8.1-28.3,66.9-66.3c0,0,57.4-41,75.2-66.3c0,0,38.9-13.5,31.7-42.9c0,0-45.1-132.2-103.9-195.5  c0,0,18.6-6.7,20.9-18.6l-6-15.6c0,0,15.6-27.6,36.5-40.2c0,0,38-29.1,46.9-51.4c0,0,39.6-14.2,46.9-96.1v-23.2  c0,0,13.6-14.7,24.8-14.7c0,0,16.7,18.6,30.8,14.2c0,0,3.1-2.8,4.3-11.2c0,0,0.1,0,4.3,1.8c0,0,4.9,0.2,5.5-4.7c0,0,2.4,1.6,6.1-2.1  c0,0,1.1-3.5,4.7-5.3c0,0,5.6,4.3,11,3.6c0,0,5.4-0.6,4.8-10.3l4.2-23.6c0,0,10.9-3,13.9-7.9C754,192.9,766.7,165.7,761.9,140.4z   M453.6,311.3c6.3,2.1,18-5,18-5c-1.7,7.2-20.8,24.9-20.8,24.9L453.6,311.3z"/>
</svg>
